<svg width="142" height="22" viewBox="0 0 142 22" fill="none" xmlns="http://www.w3.org/2000/svg">
<path d="M11 0L13.4697 7.60081H21.4616L14.996 12.2984L17.4656 19.8992L11 15.2016L4.53436 19.8992L7.00402 12.2984L0.538379 7.60081H8.53035L11 0Z" fill="#EBA900"/>
<path d="M41 0L43.4697 7.60081H51.4616L44.996 12.2984L47.4656 19.8992L41 15.2016L34.5344 19.8992L37.004 12.2984L30.5384 7.60081H38.5303L41 0Z" fill="#EBA900"/>
<path d="M71 0L73.4697 7.60081H81.4616L74.996 12.2984L77.4656 19.8992L71 15.2016L64.5344 19.8992L67.004 12.2984L60.5384 7.60081H68.5303L71 0Z" fill="#EBA900"/>
<path d="M101 0L103.47 7.60081H111.462L104.996 12.2984L107.466 19.8992L101 15.2016L94.5344 19.8992L97.004 12.2984L90.5384 7.60081H98.5303L101 0Z" fill="#EBA900"/>
<path d="M131 0L133.47 7.60081H141.462L134.996 12.2984L137.466 19.8992L131 15.2016L124.534 19.8992L127.004 12.2984L120.538 7.60081H128.53L131 0Z" fill="#EBA900"/>
</svg>
