<svg width="33" height="32" viewBox="0 0 33 32" fill="none" xmlns="http://www.w3.org/2000/svg">
<path d="M16.3385 0C13.174 0 10.0805 0.938384 7.44935 2.69649C4.81817 4.45459 2.76741 6.95345 1.55641 9.87707C0.345403 12.8007 0.0285496 16.0177 0.645913 19.1214C1.26328 22.2251 2.78713 25.0761 5.02477 27.3137C7.26241 29.5513 10.1133 31.0752 13.217 31.6926C16.3207 32.3099 19.5378 31.9931 22.4614 30.7821C25.385 29.5711 27.8839 27.5203 29.642 24.8891C31.4001 22.2579 32.3385 19.1645 32.3385 16C32.3385 11.7565 30.6528 7.68687 27.6522 4.68629C24.6516 1.68571 20.5819 0 16.3385 0V0ZM20.3932 14.4842L20.128 16.7137C20.1165 16.8171 20.0671 16.9127 19.9894 16.9819C19.9116 17.0511 19.811 17.0891 19.7069 17.0884H17.3911V23.6989C17.3917 23.7779 17.361 23.8538 17.3058 23.9102C17.2506 23.9666 17.1753 23.9989 17.0964 24H14.7385C14.6992 23.9995 14.6605 23.9912 14.6244 23.9756C14.5883 23.9601 14.5557 23.9376 14.5283 23.9095C14.5009 23.8813 14.4794 23.8481 14.4649 23.8116C14.4504 23.7751 14.4432 23.7361 14.4437 23.6968L14.4564 17.0884H12.7027C12.591 17.0884 12.4839 17.0441 12.405 16.9651C12.326 16.8861 12.2816 16.779 12.2816 16.6674V14.44C12.2816 14.3283 12.326 14.2212 12.405 14.1423C12.4839 14.0633 12.591 14.0189 12.7027 14.0189H14.4437V11.8589C14.4437 9.36 15.9322 8 18.1069 8H19.8901C20.0017 8 20.1088 8.04436 20.1878 8.12332C20.2667 8.20229 20.3111 8.30938 20.3111 8.42105V10.2968C20.3111 10.4085 20.2667 10.5156 20.1878 10.5946C20.1088 10.6735 20.0017 10.7179 19.8901 10.7179H18.7974C17.6143 10.7368 17.3911 11.3032 17.3911 12.1495V14.0126H19.9848C20.0435 14.014 20.1014 14.0276 20.1545 14.0526C20.2077 14.0776 20.255 14.1135 20.2935 14.1579C20.332 14.2023 20.3607 14.2543 20.3779 14.3105C20.3951 14.3667 20.4003 14.4259 20.3932 14.4842Z" fill="white"/>
</svg>
