<svg width="33" height="32" viewBox="0 0 33 32" fill="none" xmlns="http://www.w3.org/2000/svg">
<g clip-path="url(#clip0_437_329)">
<path d="M19.401 16C19.401 17.6914 18.0299 19.0625 16.3385 19.0625C14.6471 19.0625 13.276 17.6914 13.276 16C13.276 14.3086 14.6471 12.9375 16.3385 12.9375C18.0299 12.9375 19.401 14.3086 19.401 16Z" fill="white"/>
<path d="M23.5006 10.5813C23.3534 10.1824 23.1185 9.82129 22.8134 9.5249C22.517 9.21973 22.1561 8.98486 21.757 8.83765C21.4332 8.71191 20.9469 8.56226 20.0511 8.52148C19.0822 8.47729 18.7916 8.46777 16.3385 8.46777C13.8851 8.46777 13.5946 8.47705 12.6259 8.52124C11.7301 8.56226 11.2435 8.71191 10.92 8.83765C10.5209 8.98486 10.1598 9.21973 9.86365 9.5249C9.55847 9.82129 9.32361 10.1821 9.17615 10.5813C9.05042 10.905 8.90076 11.3916 8.85999 12.2874C8.8158 13.2561 8.80627 13.5466 8.80627 16C8.80627 18.4531 8.8158 18.7437 8.85999 19.7126C8.90076 20.6084 9.05042 21.0947 9.17615 21.4185C9.32361 21.8176 9.55823 22.1785 9.8634 22.4749C10.1598 22.78 10.5206 23.0149 10.9198 23.1621C11.2435 23.2881 11.7301 23.4377 12.6259 23.4785C13.5946 23.5227 13.8849 23.532 16.3383 23.532C18.7919 23.532 19.0824 23.5227 20.0509 23.4785C20.9467 23.4377 21.4332 23.2881 21.757 23.1621C22.5582 22.853 23.1915 22.2197 23.5006 21.4185C23.6263 21.0947 23.776 20.6084 23.817 19.7126C23.8612 18.7437 23.8705 18.4531 23.8705 16C23.8705 13.5466 23.8612 13.2561 23.817 12.2874C23.7762 11.3916 23.6266 10.905 23.5006 10.5813ZM16.3385 20.7175C13.7328 20.7175 11.6205 18.6055 11.6205 15.9998C11.6205 13.394 13.7328 11.282 16.3385 11.282C18.944 11.282 21.0563 13.394 21.0563 15.9998C21.0563 18.6055 18.944 20.7175 16.3385 20.7175ZM21.2428 12.198C20.6339 12.198 20.1403 11.7043 20.1403 11.0955C20.1403 10.4866 20.6339 9.99292 21.2428 9.99292C21.8517 9.99292 22.3453 10.4866 22.3453 11.0955C22.3451 11.7043 21.8517 12.198 21.2428 12.198Z" fill="white"/>
<path d="M16.3385 0C7.5033 0 0.338501 7.16479 0.338501 16C0.338501 24.8352 7.5033 32 16.3385 32C25.1737 32 32.3385 24.8352 32.3385 16C32.3385 7.16479 25.1737 0 16.3385 0ZM25.4706 19.7878C25.4261 20.7659 25.2706 21.4336 25.0436 22.0181C24.5663 23.2522 23.5907 24.2278 22.3566 24.7051C21.7723 24.9321 21.1044 25.0874 20.1266 25.1321C19.1469 25.1768 18.8339 25.1875 16.3387 25.1875C13.8434 25.1875 13.5306 25.1768 12.5507 25.1321C11.5729 25.0874 10.9049 24.9321 10.3207 24.7051C9.7074 24.4744 9.15222 24.1128 8.69324 23.6453C8.22595 23.1865 7.86438 22.6311 7.63367 22.0181C7.40662 21.4338 7.2511 20.7659 7.20667 19.7881C7.1615 18.8081 7.151 18.4951 7.151 16C7.151 13.5049 7.1615 13.1919 7.20642 12.2122C7.25085 11.2341 7.40613 10.5664 7.63318 9.98193C7.86389 9.3689 8.22571 8.81348 8.69324 8.35474C9.15198 7.88721 9.7074 7.52563 10.3204 7.29492C10.9049 7.06787 11.5726 6.9126 12.5507 6.86792C13.5304 6.82324 13.8434 6.8125 16.3385 6.8125C18.8336 6.8125 19.1466 6.82324 20.1263 6.86816C21.1044 6.9126 21.7721 7.06787 22.3566 7.29468C22.9696 7.52539 23.525 7.88721 23.984 8.35474C24.4513 8.81372 24.8131 9.3689 25.0436 9.98193C25.2709 10.5664 25.4261 11.2341 25.4708 12.2122C25.5155 13.1919 25.526 13.5049 25.526 16C25.526 18.4951 25.5155 18.8081 25.4706 19.7878Z" fill="white"/>
</g>
<defs>
<clipPath id="clip0_437_329">
<rect width="32" height="32" fill="white" transform="translate(0.338501)"/>
</clipPath>
</defs>
</svg>
