<svg width="60" height="87" viewBox="0 0 60 87" fill="none" xmlns="http://www.w3.org/2000/svg">
<g clip-path="url(#clip0_437_308)">
<path d="M37.5491 50.2699V51.4257C37.5491 55.7019 37.2241 56.081 32.9237 56.8115C30.5098 57.2358 28.0307 57.1383 25.6591 56.5257C23.2876 55.9132 21.0807 54.8003 19.1924 53.2647C17.304 51.7291 15.7797 49.8077 14.7256 47.6345C13.6714 45.4613 13.113 43.0886 13.089 40.6819C13.0561 35.444 13.1032 30.2154 13.0278 24.9637C13.0278 23.5768 13.1691 23.2301 14.8035 23.415C21.3545 24.2332 27.3454 27.46 31.5669 32.4443C35.7884 37.4285 37.9263 43.799 37.5491 50.2699V50.2699Z" fill="white"/>
<path d="M40.3046 53.4738C40.6814 47.2235 40.1821 41.6851 37.5397 36.5351C36.8528 35.1666 36.0657 33.8486 35.1846 32.5917C34.5817 31.7457 34.6571 31.3343 35.5708 30.835C38.483 29.2008 41.6958 28.1481 45.0242 27.7376C46.2253 27.5943 46.6916 27.8902 46.6728 29.1707C46.6115 33.0818 46.7434 36.9928 46.6728 40.9039C46.5739 45.8181 44.5862 49.8817 40.3046 53.4738Z" fill="white"/>
<path d="M41.7129 22.9019C42.3252 24.936 41.2136 25.9485 38.8585 26.4108C37.3291 26.729 35.8849 27.359 34.6194 28.26C32.9755 29.4296 31.845 29.1846 30.7099 27.7144C30.4004 27.3713 30.0546 27.0613 29.6784 26.7899C27.262 24.7927 27.2573 24.7835 29.9139 23.1885C32.5688 21.5724 35.5162 20.4737 38.5948 19.9525C41.7082 19.4393 41.7129 19.467 41.7129 22.9019Z" fill="white"/>
<path d="M31.3458 69.2845C31.3458 66.409 31.4306 63.9449 31.3128 61.4901C31.2516 60.1402 31.6566 59.7519 33.0509 59.5069C41.5292 58.0044 47.6007 52.2673 49.1362 44.1724C49.9087 40.0811 49.3011 35.8788 49.4188 31.732C49.4471 30.7334 49.4188 29.7302 49.3906 28.7316C49.3529 25.1534 49.3576 25.098 45.726 24.987C44.6191 24.95 44.4307 24.5247 44.4496 23.6001C44.4872 21.9127 44.3883 20.2161 44.4825 18.5148C44.5579 17.1279 44.068 16.5085 42.5984 16.7211C40.3517 17.0494 38.0484 17.1418 35.877 17.7104C35.2539 17.8986 34.5981 17.9596 33.95 17.8897C33.302 17.8197 32.6754 17.6203 32.1088 17.3036C27.6266 15.0925 22.6883 13.9175 17.672 13.8687C16.1836 13.8364 15.6514 14.2941 15.8869 15.6856C15.894 15.7625 15.894 15.8398 15.8869 15.9167C15.8869 17.3776 16.3579 19.1528 15.722 20.23C14.9072 21.5799 13.0749 20.1976 11.6712 20.401C10.8234 20.5258 10.1687 20.4935 10.2064 21.6215C10.4513 28.8426 9.63173 36.1099 10.6397 43.2894C11.8455 51.8836 17.8887 57.9258 26.5743 59.4699C28.3501 59.7842 28.6704 60.3945 28.5903 61.9571C28.4678 64.3148 28.5573 66.6864 28.5573 69.5665C25.8348 66.4413 22.825 64.5922 19.0757 64.0189C17.9957 63.8295 16.8914 63.8155 15.8068 63.9773C11.0966 64.7586 10.6256 65.5399 12.2553 70.0195C14.2336 75.5348 20.3192 79.3718 26.2635 78.6691C28.091 78.4565 28.8776 78.8078 28.5762 80.7079C28.5219 81.3988 28.5219 82.0927 28.5762 82.7836C28.5762 87.0645 28.5762 87.0645 24.2993 86.8888C14.8789 86.5097 4.71899 78.5212 1.78453 69.2059C0.82796 66.2033 0.351282 63.0734 0.371473 59.9276C0.404445 48.6891 0.338502 37.446 0.366763 26.2167C0.346704 19.3037 3.12066 12.665 8.08035 7.75645C13.04 2.84787 19.7806 0.0700503 26.824 0.0321349C32.9472 -0.0372099 39.0705 -0.249867 44.6709 2.80593C53.7475 7.72016 58.9664 15.1308 59.1736 25.3707C59.4139 37.4506 59.3573 49.5397 59.2019 61.6196C59.0229 75.5949 47.4264 86.7686 33.1827 87.009C31.7697 87.0321 31.0961 86.7409 31.3411 85.2708C31.3599 85.04 31.3599 84.8081 31.3411 84.5773C31.3411 82.7281 30.724 80.5137 31.553 79.1407C32.382 77.7677 34.7983 78.9465 36.5317 78.6784C42.655 77.7538 47.9257 72.3264 48.2695 66.335C48.3402 65.1608 47.6713 64.9481 46.8094 64.6615C41.5339 62.8863 36.9792 64.2269 32.9001 67.6849C32.448 68.0733 32.0664 68.5402 31.3458 69.2845Z" fill="white"/>
<path d="M17.0032 66.5988C21.916 66.5756 26.3812 69.8765 27.7001 74.2729C27.9968 75.2576 28.0298 75.6598 26.758 75.9326C21.7511 76.945 15.4536 73.0293 14.6246 68.1659C14.2572 65.933 16.2778 67.0333 17.0032 66.5988Z" fill="white"/>
<path d="M34.5911 76.1079C31.7179 76.0663 31.294 75.4561 32.4809 72.9042C34.2944 68.9561 39.1082 66.1731 43.2814 66.6077C44.8829 66.7741 45.4528 67.2872 44.7981 68.97C43.2014 73.1353 38.9622 76.1726 34.5911 76.1079Z" fill="white"/>
<path d="M30.4414 19.5689C28.6751 20.757 26.9747 21.8295 25.3685 23.0269C25.1386 23.2183 24.8537 23.3349 24.5533 23.3606C24.253 23.3863 23.9519 23.3197 23.6917 23.1702C22.4011 22.6524 21.0916 22.1578 19.7634 21.7278C19.4678 21.6626 19.2031 21.5018 19.0118 21.2713C18.8205 21.0408 18.7136 20.7538 18.7083 20.4565C18.2043 16.8044 18.5434 16.4946 22.1891 17.0448C25.0519 17.4812 27.8329 18.3318 30.4414 19.5689V19.5689Z" fill="white"/>
</g>
<defs>
<clipPath id="clip0_437_308">
<rect width="59" height="87" fill="white" transform="translate(0.338501)"/>
</clipPath>
</defs>
</svg>
