<svg xmlns="http://www.w3.org/2000/svg" viewBox="0 0 125.26 188.19"><defs><style>.b1d3b191-05fd-4923-ba45-34d0fba908df{fill:#267640;}.bc6bfc70-3ec9-4cc7-966c-c2d508e644eb{fill:#267540;}</style></defs><g id="bcfbc156-0b6c-46b8-bcc5-0341fab9a62e" data-name="Calque 2"><g id="b18a9c3d-bd91-4428-9d60-d651c02ee5e1" data-name="Calque 1"><g id="eeabe9ad-e338-4004-8fd9-d689ae6b03a2" data-name="YMW6ps"><g id="ab87cb45-7dd4-43a9-b6e0-0cd66f3f2889" data-name="jJG1cm"><g id="aa090118-b842-4d7c-82f7-068695b296a3" data-name="TS5owu"><path class="b1d3b191-05fd-4923-ba45-34d0fba908df" d="M79,108.74v2.5c0,9.25-.69,10.07-9.82,11.65A35.8,35.8,0,0,1,27.07,88C27,76.67,27.1,65.36,26.94,54c0-3,.3-3.75,3.77-3.35A55.37,55.37,0,0,1,79,108.74Z"/><path class="b1d3b191-05fd-4923-ba45-34d0fba908df" d="M84.85,115.67c.8-13.52-.26-25.5-5.87-36.64a68.3,68.3,0,0,0-5-8.53c-1.28-1.83-1.12-2.72.82-3.8A54,54,0,0,1,94.87,60c2.55-.31,3.54.33,3.5,3.1-.13,8.46.15,16.92,0,25.38C98.16,99.11,93.94,107.9,84.85,115.67Z"/><path class="b1d3b191-05fd-4923-ba45-34d0fba908df" d="M87.84,49.54c1.3,4.4-1.06,6.59-6.06,7.59a23.7,23.7,0,0,0-9,4c-3.49,2.53-5.89,2-8.3-1.18a14,14,0,0,0-2.19-2c-5.13-4.32-5.14-4.34.5-7.79a51.61,51.61,0,0,1,18.43-7C87.83,42.05,87.84,42.11,87.84,49.54Z"/><path class="bc6bfc70-3ec9-4cc7-966c-c2d508e644eb" d="M65.83,149.87c0-6.22.18-11.55-.07-16.86-.13-2.92.73-3.76,3.69-4.29,18-3.25,30.89-15.66,34.15-33.17,1.64-8.85.35-17.94.6-26.91.06-2.16,0-4.33-.06-6.49-.08-7.74-.07-7.86-7.78-8.1-2.35-.08-2.75-1-2.71-3,.08-3.65-.13-7.32.07-11,.16-3-.88-4.34-4-3.88-4.77.71-9.66.91-14.27,2.14a10.14,10.14,0,0,1-8-.88A69.79,69.79,0,0,0,36.8,30c-3.16-.07-4.29.92-3.79,3.93a2.78,2.78,0,0,1,0,.5c0,3.16,1,7-.35,9.33-1.73,2.92-5.62-.07-8.6.37-1.8.27-3.19.2-3.11,2.64.52,15.62-1.22,31.34.92,46.87,2.56,18.59,15.39,31.66,33.83,35,3.77.68,4.45,2,4.28,5.38-.26,5.1-.07,10.23-.07,16.46-5.78-6.76-12.17-10.76-20.13-12a21.28,21.28,0,0,0-6.94-.09c-10,1.69-11,3.38-7.54,13.07,4.2,11.93,17.12,20.23,29.74,18.71,3.88-.46,5.55.3,4.91,4.41a29.23,29.23,0,0,0,0,4.49c0,9.26,0,9.26-9.08,8.88-20-.82-41.57-18.1-47.8-38.25a65.86,65.86,0,0,1-3-20.07C.14,105.32,0,81,.06,56.71A56.48,56.48,0,0,1,56.23.07c13-.15,26-.61,37.89,6,19.27,10.63,30.35,26.66,30.79,48.81.51,26.13.39,52.28.06,78.41-.38,30.23-25,54.4-55.24,54.92-3,.05-4.43-.58-3.91-3.76a9.38,9.38,0,0,0,0-1.5c0-4-1.31-8.79.45-11.76s6.89-.42,10.57-1c13-2,24.19-13.74,24.92-26.7.15-2.54-1.27-3-3.1-3.62-11.2-3.84-20.87-.94-29.53,6.54C68.17,147.25,67.36,148.26,65.83,149.87Z"/><path class="b1d3b191-05fd-4923-ba45-34d0fba908df" d="M35.38,144.06c10.43-.05,19.91,7.09,22.71,16.6.63,2.13.7,3-2,3.59-10.63,2.19-24-6.28-25.76-16.8C29.55,142.62,33.84,145,35.38,144.06Z"/><path class="b1d3b191-05fd-4923-ba45-34d0fba908df" d="M72.72,164.63c-6.1-.09-7-1.41-4.48-6.93,3.85-8.54,14.07-14.56,22.93-13.62,3.4.36,4.61,1.47,3.22,5.11C91,158.2,82,164.77,72.72,164.63Z"/><path class="b1d3b191-05fd-4923-ba45-34d0fba908df" d="M63.91,42.33c-3.75,2.57-7.36,4.89-10.77,7.48a3.09,3.09,0,0,1-3.56.31C46.84,49,44.06,47.93,41.24,47A2.87,2.87,0,0,1,39,44.25c-1.07-7.9-.35-8.57,7.39-7.38A62.22,62.22,0,0,1,63.91,42.33Z"/></g></g></g></g></g></svg>